<svg width="35" height="45" viewBox="0 0 35 45" fill="none" xmlns="http://www.w3.org/2000/svg">
<g clipPath="url(#clip0_1338_3882)">
<path d="M33.0893 22.8504C33.842 23.084 34.0413 24.0559 33.4413 24.5669L29.1158 28.2503C28.7373 28.5725 28.6531 29.1239 28.918 29.5446L31.7496 34.0402C32.1691 34.7061 31.6905 35.5731 30.9035 35.5731H25.4779C24.9671 35.5731 24.5384 35.9581 24.4837 36.466C24.301 38.1635 24.1166 39.8806 23.9243 41.6695C23.8365 42.4858 22.8568 42.8544 22.2528 42.2984L18.0457 38.4251C17.6377 38.0495 17.0021 38.0776 16.6288 38.4877L13.3551 42.0844C12.7877 42.7077 11.751 42.3924 11.6267 41.5587C11.3461 39.6772 11.0753 37.86 10.8 36.0165C10.7231 35.5013 10.2636 35.1315 9.74392 35.1665L4.75516 35.5021C3.95903 35.5556 3.42392 34.701 3.81979 34.0082L6.68553 28.993C6.93283 28.5602 6.82365 28.0114 6.42954 27.7062L2.28184 24.4944C1.65881 24.012 1.81261 23.032 2.5535 22.7637C4.31159 22.1269 6.02169 21.5077 7.76096 20.8766C8.23647 20.7041 8.5082 20.2036 8.39393 19.7108L7.17954 14.4744C6.99649 13.6851 7.77896 13.0171 8.52974 13.3218L13.5067 15.3417C13.9996 15.5417 14.5628 15.3209 14.7884 14.8392L16.9767 10.1656C17.3273 9.41687 18.3835 9.39283 18.7678 10.1249L21.3532 15.0497C21.6009 15.5215 22.175 15.7162 22.6586 15.4925L27.1539 13.4125C27.8898 13.072 28.7036 13.7028 28.5575 14.5004L27.5131 20.1981C27.4218 20.696 27.717 21.1835 28.2004 21.3335L33.0893 22.8504ZM26.7307 26.6885C26.7466 21.626 22.7092 17.3811 17.8646 17.3664C13.02 17.3516 8.94919 21.5458 8.91098 26.6164C8.86799 31.5101 13.2095 36.199 17.7786 36.1973C22.4354 36.1908 26.7164 31.6461 26.7307 26.6885Z" fill="#29166F"/>
<path d="M19.8679 5.54571C19.8735 6.04562 19.6865 6.52747 19.348 6.88602C19.0094 7.24456 18.5467 7.45065 18.061 7.45928C17.821 7.47669 17.5801 7.44353 17.353 7.36184C17.1259 7.28015 16.9174 7.15165 16.7402 6.98418C16.563 6.81672 16.4209 6.61382 16.3225 6.38789C16.2241 6.16197 16.1716 5.91776 16.168 5.67022C16.1585 4.40379 17.1694 2.87359 18.0228 2.86213C18.8045 2.85066 19.8361 4.35137 19.8679 5.54571Z" fill="#661A2B"/>
<path d="M26.7302 26.6884C26.7159 31.6459 22.4317 36.1907 17.7782 36.1907C13.2075 36.1907 8.86279 31.5034 8.91055 26.6097C8.95512 21.5391 13.0212 17.3384 17.8642 17.3597C22.7072 17.381 26.7462 21.6259 26.7302 26.6884ZM19.4069 28.4905L20.4465 27.9728L22.5687 27.8548C22.6721 28.9411 22.7597 29.8552 22.8743 31.0496L26.4055 26.6933L22.7788 22.1371C22.7406 22.6466 22.7183 22.8448 22.7103 23.0431C22.6053 25.6791 22.6053 25.6791 19.9402 25.5301L18.9022 24.3111V22.3599L22.0767 22.1567L17.7113 18.3886C16.3231 19.6157 15.016 20.7707 13.4972 22.1158L16.589 22.3681V24.5307C15.5462 24.1948 15.6688 24.9763 15.6194 25.5939C13.2027 25.5104 13.2043 25.5104 13.1167 22.9906C13.1167 22.8022 13.0785 22.6138 13.0323 22.1813L9.43433 26.7047L12.9909 31.0611C13.3253 27.7647 13.3253 27.7647 14.8696 27.9744C14.9794 28.2218 15.0288 28.6216 15.2087 28.6822C15.5271 28.7969 15.9203 28.715 16.2833 28.715L16.5858 30.119V31.1856L13.5704 31.546L17.7336 35.2126L22.1022 31.4035L18.9499 31.2396C18.9165 30.8104 18.8895 30.4745 18.8624 30.137C19.0471 29.5822 19.2339 29.0312 19.4228 28.484L19.4069 28.4905Z" fill="#F9F6F7"/>
<path d="M19.9492 25.5236C22.6143 25.6727 22.6143 25.6727 22.7194 23.0366C22.7273 22.8384 22.7496 22.6401 22.7878 22.1306L26.4145 26.6868L22.8833 31.0431C22.7687 29.8488 22.6812 28.9346 22.5777 27.8484L20.4539 27.9663L19.9492 27.8975V25.5236Z" fill="#D42A23"/>
<path d="M14.8688 27.968C13.3245 27.7583 13.3245 27.7583 12.9902 31.0547L9.43359 26.7049L13.0396 22.1831C13.0857 22.6156 13.1176 22.804 13.1239 22.9924C13.2115 25.5122 13.2099 25.5122 15.6266 25.5957C15.6027 26.0947 15.6075 26.5948 15.641 27.0932C15.7174 27.7272 15.5359 28.05 14.8688 27.968Z" fill="#D42A23"/>
<path d="M16.5976 24.5257V22.3631L13.5059 22.1173C15.0247 20.7723 16.3317 19.6172 17.72 18.3901L22.0854 22.1583L18.9108 22.3614V24.3061H17.7964L16.5976 24.5257Z" fill="#D32B24"/>
<path d="M18.8623 30.1271C18.8893 30.463 18.9164 30.7988 18.9498 31.2281L22.1021 31.3919L17.7335 35.201L13.5703 31.5344L16.5856 31.174V30.1124L17.6109 29.2588L18.8623 30.1271Z" fill="#D42A23"/>
<path d="M16.5974 24.5259L17.7899 24.3047H18.9043L19.9423 25.5236V27.8976L20.447 27.9664L19.4233 28.4841C18.414 28.4841 17.403 28.4841 16.3984 28.4988C16.3634 28.4988 16.33 28.6364 16.2965 28.7085C15.9336 28.7085 15.5451 28.7904 15.2219 28.6758C15.05 28.6151 14.9927 28.2154 14.8828 27.968C15.5499 28.0499 15.7314 27.7272 15.655 27.0866C15.6215 26.5882 15.6167 26.0881 15.6406 25.5891C15.6772 24.9715 15.5547 24.19 16.5974 24.5259ZM17.7994 25.1632C17.2916 25.8513 16.7137 26.31 16.7742 26.6377C16.8522 27.0702 17.4349 27.4061 17.801 27.7845C18.1401 27.4241 18.7149 27.0849 18.7483 26.6983C18.7817 26.3116 18.2691 25.8742 17.7994 25.1632Z" fill="#EBEAF1"/>
<path d="M16.2832 28.7083C16.3166 28.6363 16.3501 28.4986 16.3851 28.4986C17.3944 28.4855 18.4054 28.4855 19.41 28.4839C19.2274 29.03 19.0433 29.5761 18.8575 30.1222L17.6062 29.2555L16.5809 30.1091C16.4854 29.6438 16.3835 29.1769 16.2832 28.7083Z" fill="#29166F"/>
<path d="M17.7992 25.1631C18.2688 25.8741 18.7814 26.3099 18.7544 26.6933C18.7273 27.0766 18.1462 27.4191 17.8071 27.7795C17.4409 27.4027 16.8519 27.0668 16.7802 26.6327C16.7166 26.3034 17.2913 25.8512 17.7992 25.1631Z" fill="#29166F"/>
</g>
<defs>
<clipPath id="clip0_1338_3882">
<rect width="35" height="45" fill="white"/>
</clipPath>
</defs>
</svg>
